{
 "accessors": [
  {
   "componentType": 5126,
   "type": "VEC3",
   "count": 766,
   "max": [
    -2.86816143989563,
    5.878310680389404,
    0.8919857740402222
   ],
   "min": [
    -4.308445453643799,
    4.6618547439575195,
    0.18693183362483978
   ],
   "bufferView": 0
  },
  {
   "componentType": 5126,
   "type": "VEC3",
   "count": 766,
   "bufferView": 1
  },
  {
   "componentType": 5126,
   "type": "VEC2",
   "count": 766,
   "bufferView": 2
  },
  {
   "componentType": 5123,
   "type": "SCALAR",
   "count": 852,
   "bufferView": 3
  },
  {
   "componentType": 5126,
   "type": "VEC3",
   "count": 808,
   "max": [
    -2.4224460124969482,
    6.254759788513184,
    0.8919857740402222
   ],
   "min": [
    -4.7541608810424805,
    4.28540563583374,
    0.18693183362483978
   ],
   "bufferView": 4
  },
  {
   "componentType": 5126,
   "type": "VEC3",
   "count": 808,
   "bufferView": 5
  },
  {
   "componentType": 5126,
   "type": "VEC2",
   "count": 808,
   "bufferView": 6
  },
  {
   "componentType": 5123,
   "type": "SCALAR",
   "count": 888,
   "bufferView": 7
  }
 ],
 "asset": {
  "version": "2.0",
  "generator": "clara.io"
 },
 "bufferViews": [
  {
   "buffer": 0,
   "byteOffset": 0,
   "byteLength": 9192,
   "target": 34962,
   "byteStride": 12
  },
  {
   "buffer": 0,
   "byteOffset": 9192,
   "byteLength": 9192,
   "target": 34962,
   "byteStride": 12
  },
  {
   "buffer": 0,
   "byteOffset": 18384,
   "byteLength": 6128,
   "target": 34962,
   "byteStride": 8
  },
  {
   "buffer": 0,
   "byteOffset": 24512,
   "byteLength": 1704,
   "target": 34963
  },
  {
   "buffer": 0,
   "byteOffset": 26216,
   "byteLength": 9696,
   "target": 34962,
   "byteStride": 12
  },
  {
   "buffer": 0,
   "byteOffset": 35912,
   "byteLength": 9696,
   "target": 34962,
   "byteStride": 12
  },
  {
   "buffer": 0,
   "byteOffset": 45608,
   "byteLength": 6464,
   "target": 34962,
   "byteStride": 8
  },
  {
   "buffer": 0,
   "byteOffset": 52072,
   "byteLength": 1776,
   "target": 34963
  }
 ],
 "buffers": [
  {
   "byteLength": 53848,
   "uri": "data:application/octet-stream;base64,"
  }
 ],
 "materials": [
  {
   "pbrMetallicRoughness": {
    "baseColorFactor": [
     0.07058823529411765,
     0.4588235294117647,
     0.00784313725490196,
     1
    ],
    "roughnessFactor": 0.3015,
    "metallicFactor": 0
   },
   "emissiveFactor": [
    0.07058823529411765,
    0.4588235294117647,
    0.00784313725490196
   ]
  },
  {
   "pbrMetallicRoughness": {
    "baseColorFactor": [
     0.07058823529411765,
     0.4588235294117647,
     0.00784313725490196,
     1
    ],
    "roughnessFactor": 0.3015,
    "metallicFactor": 0
   },
   "emissiveFactor": [
    0.07058823529411765,
    0.4588235294117647,
    0.00784313725490196
   ]
  }
 ],
 "meshes": [
  {
   "primitives": [
    {
     "indices": 3,
     "material": 1,
     "mode": 4,
     "attributes": {
      "POSITION": 0,
      "NORMAL": 1,
      "TEXCOORD_0": 2
     }
    }
   ]
  },
  {
   "primitives": [
    {
     "indices": 7,
     "material": 0,
     "mode": 4,
     "attributes": {
      "POSITION": 4,
      "NORMAL": 5,
      "TEXCOORD_0": 6
     }
    }
   ]
  }
 ],
 "nodes": [
  {
   "name": "Arrows_root",
   "children": [
    1,
    2
   ]
  },
  {
   "name": "object_2",
   "translation": [
    1.801200032234192,
    0.45410001277923584,
    2.6426000595092773
   ],
   "rotation": [
    -0.7071067811865475,
    0,
    0,
    0.7071067811865476
   ],
   "scale": [
    0.5,
    0.5,
    0.5
   ],
   "mesh": 0
  },
  {
   "name": "object_1",
   "translation": [
    1.801200032234192,
    0.45410001277923584,
    2.6426000595092773
   ],
   "rotation": [
    -0.7071067811865475,
    0,
    0,
    0.7071067811865476
   ],
   "scale": [
    0.5,
    0.5,
    0.5
   ],
   "mesh": 1
  }
 ],
 "scene": 0,
 "scenes": [
  {
   "nodes": [
    0
   ]
  }
 ]
}