{
 "accessors": [
  {
   "componentType": 5126,
   "type": "VEC3",
   "count": 54,
   "max": [
    3.1313300132751465,
    0.3810029923915863,
    3.0797600746154785
   ],
   "min": [
    -3.1313300132751465,
    -0.3810040056705475,
    -3.0797600746154785
   ],
   "bufferView": 0
  },
  {
   "componentType": 5126,
   "type": "VEC3",
   "count": 54,
   "bufferView": 1
  },
  {
   "componentType": 5126,
   "type": "VEC2",
   "count": 54,
   "bufferView": 2
  },
  {
   "componentType": 5121,
   "type": "SCALAR",
   "count": 72,
   "bufferView": 3
  }
 ],
 "asset": {
  "version": "2.0",
  "generator": "clara.io"
 },
 "bufferViews": [
  {
   "buffer": 0,
   "byteOffset": 0,
   "byteLength": 648,
   "target": 34962,
   "byteStride": 12
  },
  {
   "buffer": 0,
   "byteOffset": 648,
   "byteLength": 648,
   "target": 34962,
   "byteStride": 12
  },
  {
   "buffer": 0,
   "byteOffset": 1296,
   "byteLength": 432,
   "target": 34962,
   "byteStride": 8
  },
  {
   "buffer": 0,
   "byteOffset": 1728,
   "byteLength": 72,
   "target": 34963
  }
 ],
 "buffers": [
  {
   "byteLength": 1800,
   "uri": "data:application/octet-stream;base64,"
  }
 ],
 "materials": [
  {
   "pbrMetallicRoughness": {
    "baseColorFactor": [
     0.07058823529411765,
     0.4588235294117647,
     0.00784313725490196,
     0.85
    ],
    "roughnessFactor": 0.3,
    "metallicFactor": 0
   },
   "emissiveFactor": [
    0.07058823529411765,
    0.4588235294117647,
    0.00784313725490196
   ],
   "alphaMode": "BLEND"
  }
 ],
 "meshes": [
  {
   "primitives": [
    {
     "indices": 3,
     "material": 0,
     "mode": 4,
     "attributes": {
      "POSITION": 0,
      "NORMAL": 1,
      "TEXCOORD_0": 2
     }
    }
   ]
  }
 ],
 "nodes": [
  {
   "name": "arrow_root",
   "children": [
    1
   ]
  },
  {
   "name": "default",
   "translation": [
    0,
    0.125900000333786,
    -0.0035000001080334187
   ],
   "rotation": [
    1,
    0,
    0,
    6.123234262925839e-17
   ],
   "scale": [
    0.11999999731779099,
    0.30000001192092896,
    0.15000000596046448
   ],
   "mesh": 0
  }
 ],
 "scene": 0,
 "scenes": [
  {
   "nodes": [
    0
   ]
  }
 ]
}