{
 "accessors": [
  {
   "componentType": 5126,
   "type": "VEC3",
   "count": 60,
   "max": [
    1.472059965133667,
    0.5,
    1.0679399967193604
   ],
   "min": [
    -1.4679399728775024,
    -0.5,
    -2.352060079574585
   ],
   "bufferView": 0
  },
  {
   "componentType": 5126,
   "type": "VEC3",
   "count": 60,
   "bufferView": 1
  },
  {
   "componentType": 5126,
   "type": "VEC2",
   "count": 60,
   "bufferView": 2
  },
  {
   "componentType": 5121,
   "type": "SCALAR",
   "count": 60,
   "bufferView": 3
  }
 ],
 "asset": {
  "version": "2.0",
  "generator": "clara.io"
 },
 "bufferViews": [
  {
   "buffer": 0,
   "byteOffset": 0,
   "byteLength": 720,
   "target": 34962,
   "byteStride": 12
  },
  {
   "buffer": 0,
   "byteOffset": 720,
   "byteLength": 720,
   "target": 34962,
   "byteStride": 12
  },
  {
   "buffer": 0,
   "byteOffset": 1440,
   "byteLength": 480,
   "target": 34962,
   "byteStride": 8
  },
  {
   "buffer": 0,
   "byteOffset": 1920,
   "byteLength": 60,
   "target": 34963
  }
 ],
 "buffers": [
  {
   "byteLength": 1980,
   "uri": "data:application/octet-stream;base64,"
  }
 ],
 "materials": [
  {
   "pbrMetallicRoughness": {
    "baseColorFactor": [
     0.15294117647058825,
     0.7490196078431373,
     0.043137254901960784,
     0.8
    ],
    "roughnessFactor": 0.3015,
    "metallicFactor": 0.25
   },
   "emissiveFactor": [
    0.15294117647058825,
    0.7490196078431373,
    0.043137254901960784
   ],
   "alphaMode": "BLEND"
  }
 ],
 "meshes": [
  {
   "primitives": [
    {
     "indices": 3,
     "material": 0,
     "mode": 4,
     "attributes": {
      "POSITION": 0,
      "NORMAL": 1,
      "TEXCOORD_0": 2
     }
    }
   ]
  }
 ],
 "nodes": [
  {
   "name": "arrow_root",
   "children": [
    1
   ]
  },
  {
   "name": "arrow_model",
   "translation": [
    0,
    0.7649999856948853,
    0.2994000017642975
   ],
   "scale": [
    0.5,
    0.5,
    0.5
   ],
   "mesh": 0
  }
 ],
 "scene": 0,
 "scenes": [
  {
   "nodes": [
    0
   ]
  }
 ]
}